<mxfile host="app.diagrams.net" modified="2021-02-07T18:54:46.029Z" agent="5.0 (Windows NT 10.0; Win64; x64) AppleWebKit/537.36 (KHTML, like Gecko) Chrome/88.0.4324.150 Safari/537.36 Edg/88.0.705.63" etag="ulY5hGY2LK260ObnqoS3" version="14.2.9" type="github">
  <diagram id="9zGSrqXPqIjhty2C2Nkj" name="Page-1">
    <mxGraphModel dx="2272" dy="794" grid="1" gridSize="10" guides="1" tooltips="1" connect="1" arrows="1" fold="1" page="1" pageScale="1" pageWidth="850" pageHeight="1100" math="0" shadow="0">
      <root>
        <mxCell id="0" />
        <mxCell id="1" parent="0" />
        <mxCell id="9l3UPbGqFEDprcxRc8I1-12" value="" style="whiteSpace=wrap;html=1;aspect=fixed;" vertex="1" parent="1">
          <mxGeometry x="40" y="40" width="300" height="300" as="geometry" />
        </mxCell>
        <mxCell id="9l3UPbGqFEDprcxRc8I1-13" value="Hardware Key" style="rounded=0;whiteSpace=wrap;html=1;" vertex="1" parent="1">
          <mxGeometry x="120" y="50" width="90" height="30" as="geometry" />
        </mxCell>
        <mxCell id="9l3UPbGqFEDprcxRc8I1-16" value="" style="rhombus;whiteSpace=wrap;html=1;" vertex="1" parent="1">
          <mxGeometry x="47.5" y="90" width="100" height="50" as="geometry" />
        </mxCell>
        <mxCell id="9l3UPbGqFEDprcxRc8I1-18" value="" style="rounded=1;whiteSpace=wrap;html=1;" vertex="1" parent="1">
          <mxGeometry x="47.5" y="160" width="100" height="40" as="geometry" />
        </mxCell>
        <mxCell id="9l3UPbGqFEDprcxRc8I1-19" value="Screen" style="text;html=1;strokeColor=none;fillColor=none;align=center;verticalAlign=middle;whiteSpace=wrap;rounded=0;" vertex="1" parent="1">
          <mxGeometry x="175" y="170" width="40" height="20" as="geometry" />
        </mxCell>
        <mxCell id="9l3UPbGqFEDprcxRc8I1-20" value="Action" style="text;html=1;strokeColor=none;fillColor=none;align=center;verticalAlign=middle;whiteSpace=wrap;rounded=0;" vertex="1" parent="1">
          <mxGeometry x="175" y="105" width="40" height="20" as="geometry" />
        </mxCell>
        <mxCell id="9l3UPbGqFEDprcxRc8I1-27" style="edgeStyle=orthogonalEdgeStyle;rounded=0;orthogonalLoop=1;jettySize=auto;html=1;exitX=0;exitY=1;exitDx=0;exitDy=0;entryX=0.5;entryY=0;entryDx=0;entryDy=0;" edge="1" parent="1" source="9l3UPbGqFEDprcxRc8I1-21" target="9l3UPbGqFEDprcxRc8I1-26">
          <mxGeometry relative="1" as="geometry">
            <mxPoint x="440" y="210" as="targetPoint" />
            <Array as="points">
              <mxPoint x="440" y="170" />
            </Array>
          </mxGeometry>
        </mxCell>
        <mxCell id="9l3UPbGqFEDprcxRc8I1-28" style="edgeStyle=orthogonalEdgeStyle;rounded=0;orthogonalLoop=1;jettySize=auto;html=1;exitX=1;exitY=1;exitDx=0;exitDy=0;entryX=0.5;entryY=0;entryDx=0;entryDy=0;" edge="1" parent="1" source="9l3UPbGqFEDprcxRc8I1-21" target="9l3UPbGqFEDprcxRc8I1-25">
          <mxGeometry relative="1" as="geometry">
            <Array as="points">
              <mxPoint x="640" y="170" />
            </Array>
          </mxGeometry>
        </mxCell>
        <mxCell id="9l3UPbGqFEDprcxRc8I1-21" value="Bus Key" style="rhombus;whiteSpace=wrap;html=1;" vertex="1" parent="1">
          <mxGeometry x="470" y="110" width="140" height="80" as="geometry" />
        </mxCell>
        <mxCell id="9l3UPbGqFEDprcxRc8I1-55" style="edgeStyle=orthogonalEdgeStyle;rounded=0;orthogonalLoop=1;jettySize=auto;html=1;exitX=0.5;exitY=1;exitDx=0;exitDy=0;entryX=0.5;entryY=0;entryDx=0;entryDy=0;" edge="1" parent="1" source="9l3UPbGqFEDprcxRc8I1-22" target="9l3UPbGqFEDprcxRc8I1-54">
          <mxGeometry relative="1" as="geometry" />
        </mxCell>
        <mxCell id="9l3UPbGqFEDprcxRc8I1-22" value="Welcome back aboard bus &quot;ID -----&quot;" style="rounded=1;whiteSpace=wrap;html=1;" vertex="1" parent="1">
          <mxGeometry x="475" y="340" width="120" height="60" as="geometry" />
        </mxCell>
        <mxCell id="9l3UPbGqFEDprcxRc8I1-23" value="" style="rounded=0;whiteSpace=wrap;html=1;" vertex="1" parent="1">
          <mxGeometry x="47.5" y="290" width="100" height="40" as="geometry" />
        </mxCell>
        <mxCell id="9l3UPbGqFEDprcxRc8I1-24" value="Hardware Decision" style="text;html=1;strokeColor=none;fillColor=none;align=center;verticalAlign=middle;whiteSpace=wrap;rounded=0;" vertex="1" parent="1">
          <mxGeometry x="175" y="300" width="120" height="20" as="geometry" />
        </mxCell>
        <mxCell id="9l3UPbGqFEDprcxRc8I1-29" style="edgeStyle=orthogonalEdgeStyle;rounded=0;orthogonalLoop=1;jettySize=auto;html=1;exitX=1;exitY=0.5;exitDx=0;exitDy=0;entryX=0.5;entryY=0;entryDx=0;entryDy=0;" edge="1" parent="1" source="9l3UPbGqFEDprcxRc8I1-25" target="9l3UPbGqFEDprcxRc8I1-21">
          <mxGeometry relative="1" as="geometry" />
        </mxCell>
        <mxCell id="9l3UPbGqFEDprcxRc8I1-25" value="Incorrect Key" style="rounded=0;whiteSpace=wrap;html=1;" vertex="1" parent="1">
          <mxGeometry x="580" y="230" width="120" height="60" as="geometry" />
        </mxCell>
        <mxCell id="9l3UPbGqFEDprcxRc8I1-30" style="edgeStyle=orthogonalEdgeStyle;rounded=0;orthogonalLoop=1;jettySize=auto;html=1;exitX=0.5;exitY=1;exitDx=0;exitDy=0;entryX=0.5;entryY=0;entryDx=0;entryDy=0;" edge="1" parent="1" source="9l3UPbGqFEDprcxRc8I1-26" target="9l3UPbGqFEDprcxRc8I1-22">
          <mxGeometry relative="1" as="geometry" />
        </mxCell>
        <mxCell id="9l3UPbGqFEDprcxRc8I1-26" value="Correct Key" style="rounded=0;whiteSpace=wrap;html=1;" vertex="1" parent="1">
          <mxGeometry x="380" y="230" width="120" height="60" as="geometry" />
        </mxCell>
        <mxCell id="9l3UPbGqFEDprcxRc8I1-32" value="" style="ellipse;whiteSpace=wrap;html=1;" vertex="1" parent="1">
          <mxGeometry x="52.5" y="220" width="90" height="50" as="geometry" />
        </mxCell>
        <mxCell id="9l3UPbGqFEDprcxRc8I1-33" value="Button" style="text;html=1;strokeColor=none;fillColor=none;align=center;verticalAlign=middle;whiteSpace=wrap;rounded=0;" vertex="1" parent="1">
          <mxGeometry x="180" y="235" width="40" height="20" as="geometry" />
        </mxCell>
        <mxCell id="9l3UPbGqFEDprcxRc8I1-34" value="Since all hardware is on one Arduino all displays must show up on the same display&amp;nbsp;" style="text;html=1;strokeColor=none;fillColor=none;align=center;verticalAlign=middle;whiteSpace=wrap;rounded=0;" vertex="1" parent="1">
          <mxGeometry x="430" y="20" width="230" height="50" as="geometry" />
        </mxCell>
        <mxCell id="9l3UPbGqFEDprcxRc8I1-49" value="Door Over Ride" style="ellipse;whiteSpace=wrap;html=1;" vertex="1" parent="1">
          <mxGeometry x="-260" y="550" width="100" height="60" as="geometry" />
        </mxCell>
        <mxCell id="9l3UPbGqFEDprcxRc8I1-50" value="External Light" style="ellipse;whiteSpace=wrap;html=1;" vertex="1" parent="1">
          <mxGeometry x="-40" y="550" width="100" height="60" as="geometry" />
        </mxCell>
        <mxCell id="9l3UPbGqFEDprcxRc8I1-51" value="Internal Lights" style="ellipse;whiteSpace=wrap;html=1;" vertex="1" parent="1">
          <mxGeometry x="185" y="550" width="100" height="60" as="geometry" />
        </mxCell>
        <mxCell id="9l3UPbGqFEDprcxRc8I1-62" style="edgeStyle=orthogonalEdgeStyle;rounded=0;orthogonalLoop=1;jettySize=auto;html=1;exitX=0.5;exitY=1;exitDx=0;exitDy=0;entryX=0.5;entryY=0;entryDx=0;entryDy=0;" edge="1" parent="1" source="9l3UPbGqFEDprcxRc8I1-52" target="9l3UPbGqFEDprcxRc8I1-61">
          <mxGeometry relative="1" as="geometry" />
        </mxCell>
        <mxCell id="9l3UPbGqFEDprcxRc8I1-52" value="Speed Over Ride" style="ellipse;whiteSpace=wrap;html=1;" vertex="1" parent="1">
          <mxGeometry x="485" y="550" width="100" height="60" as="geometry" />
        </mxCell>
        <mxCell id="9l3UPbGqFEDprcxRc8I1-83" style="edgeStyle=orthogonalEdgeStyle;rounded=0;orthogonalLoop=1;jettySize=auto;html=1;exitX=0.5;exitY=1;exitDx=0;exitDy=0;entryX=0.5;entryY=0;entryDx=0;entryDy=0;" edge="1" parent="1" source="9l3UPbGqFEDprcxRc8I1-53" target="9l3UPbGqFEDprcxRc8I1-82">
          <mxGeometry relative="1" as="geometry" />
        </mxCell>
        <mxCell id="9l3UPbGqFEDprcxRc8I1-53" value="Train Intercom" style="ellipse;whiteSpace=wrap;html=1;" vertex="1" parent="1">
          <mxGeometry x="725" y="550" width="100" height="60" as="geometry" />
        </mxCell>
        <mxCell id="9l3UPbGqFEDprcxRc8I1-56" style="edgeStyle=orthogonalEdgeStyle;rounded=0;orthogonalLoop=1;jettySize=auto;html=1;exitX=0.5;exitY=1;exitDx=0;exitDy=0;entryX=0.5;entryY=0;entryDx=0;entryDy=0;" edge="1" parent="1" source="9l3UPbGqFEDprcxRc8I1-54" target="9l3UPbGqFEDprcxRc8I1-51">
          <mxGeometry relative="1" as="geometry" />
        </mxCell>
        <mxCell id="9l3UPbGqFEDprcxRc8I1-57" style="edgeStyle=orthogonalEdgeStyle;rounded=0;orthogonalLoop=1;jettySize=auto;html=1;exitX=0.5;exitY=1;exitDx=0;exitDy=0;entryX=0.5;entryY=0;entryDx=0;entryDy=0;" edge="1" parent="1" source="9l3UPbGqFEDprcxRc8I1-54" target="9l3UPbGqFEDprcxRc8I1-52">
          <mxGeometry relative="1" as="geometry" />
        </mxCell>
        <mxCell id="9l3UPbGqFEDprcxRc8I1-58" style="edgeStyle=orthogonalEdgeStyle;rounded=0;orthogonalLoop=1;jettySize=auto;html=1;exitX=0.5;exitY=1;exitDx=0;exitDy=0;entryX=0.5;entryY=0;entryDx=0;entryDy=0;" edge="1" parent="1" source="9l3UPbGqFEDprcxRc8I1-54" target="9l3UPbGqFEDprcxRc8I1-50">
          <mxGeometry relative="1" as="geometry" />
        </mxCell>
        <mxCell id="9l3UPbGqFEDprcxRc8I1-59" style="edgeStyle=orthogonalEdgeStyle;rounded=0;orthogonalLoop=1;jettySize=auto;html=1;exitX=0.5;exitY=1;exitDx=0;exitDy=0;entryX=0.5;entryY=0;entryDx=0;entryDy=0;" edge="1" parent="1" source="9l3UPbGqFEDprcxRc8I1-54" target="9l3UPbGqFEDprcxRc8I1-49">
          <mxGeometry relative="1" as="geometry" />
        </mxCell>
        <mxCell id="9l3UPbGqFEDprcxRc8I1-60" style="edgeStyle=orthogonalEdgeStyle;rounded=0;orthogonalLoop=1;jettySize=auto;html=1;exitX=0.5;exitY=1;exitDx=0;exitDy=0;" edge="1" parent="1" source="9l3UPbGqFEDprcxRc8I1-54" target="9l3UPbGqFEDprcxRc8I1-53">
          <mxGeometry relative="1" as="geometry" />
        </mxCell>
        <mxCell id="9l3UPbGqFEDprcxRc8I1-54" value="Default Display&lt;br&gt;(shows speed and current state of train mechanics)" style="rounded=1;whiteSpace=wrap;html=1;" vertex="1" parent="1">
          <mxGeometry x="455" y="430" width="160" height="60" as="geometry" />
        </mxCell>
        <mxCell id="9l3UPbGqFEDprcxRc8I1-69" style="edgeStyle=orthogonalEdgeStyle;rounded=0;orthogonalLoop=1;jettySize=auto;html=1;exitX=0;exitY=0.5;exitDx=0;exitDy=0;entryX=0.5;entryY=0;entryDx=0;entryDy=0;" edge="1" parent="1" source="9l3UPbGqFEDprcxRc8I1-61" target="9l3UPbGqFEDprcxRc8I1-65">
          <mxGeometry relative="1" as="geometry" />
        </mxCell>
        <mxCell id="9l3UPbGqFEDprcxRc8I1-70" style="edgeStyle=orthogonalEdgeStyle;rounded=0;orthogonalLoop=1;jettySize=auto;html=1;exitX=1;exitY=0.5;exitDx=0;exitDy=0;entryX=0.5;entryY=0;entryDx=0;entryDy=0;" edge="1" parent="1" source="9l3UPbGqFEDprcxRc8I1-61" target="9l3UPbGqFEDprcxRc8I1-68">
          <mxGeometry relative="1" as="geometry" />
        </mxCell>
        <mxCell id="9l3UPbGqFEDprcxRc8I1-61" value="Is new Speed under the Speed Limit?" style="rounded=0;whiteSpace=wrap;html=1;" vertex="1" parent="1">
          <mxGeometry x="489.69" y="640" width="95" height="50" as="geometry" />
        </mxCell>
        <mxCell id="9l3UPbGqFEDprcxRc8I1-78" style="edgeStyle=orthogonalEdgeStyle;rounded=0;orthogonalLoop=1;jettySize=auto;html=1;exitX=0.5;exitY=1;exitDx=0;exitDy=0;entryX=0.5;entryY=0;entryDx=0;entryDy=0;" edge="1" parent="1" source="9l3UPbGqFEDprcxRc8I1-65" target="9l3UPbGqFEDprcxRc8I1-76">
          <mxGeometry relative="1" as="geometry" />
        </mxCell>
        <mxCell id="9l3UPbGqFEDprcxRc8I1-65" value="set new speed" style="rounded=0;whiteSpace=wrap;html=1;" vertex="1" parent="1">
          <mxGeometry x="402.19" y="710" width="95" height="50" as="geometry" />
        </mxCell>
        <mxCell id="9l3UPbGqFEDprcxRc8I1-73" style="edgeStyle=orthogonalEdgeStyle;rounded=0;orthogonalLoop=1;jettySize=auto;html=1;exitX=0;exitY=0.5;exitDx=0;exitDy=0;entryX=1;entryY=0.5;entryDx=0;entryDy=0;" edge="1" parent="1" source="9l3UPbGqFEDprcxRc8I1-68" target="9l3UPbGqFEDprcxRc8I1-65">
          <mxGeometry relative="1" as="geometry" />
        </mxCell>
        <mxCell id="9l3UPbGqFEDprcxRc8I1-75" style="edgeStyle=orthogonalEdgeStyle;rounded=0;orthogonalLoop=1;jettySize=auto;html=1;exitX=0.5;exitY=1;exitDx=0;exitDy=0;entryX=1;entryY=0.5;entryDx=0;entryDy=0;" edge="1" parent="1" source="9l3UPbGqFEDprcxRc8I1-68" target="9l3UPbGqFEDprcxRc8I1-54">
          <mxGeometry relative="1" as="geometry">
            <mxPoint x="840" y="460" as="targetPoint" />
            <Array as="points">
              <mxPoint x="639" y="763" />
              <mxPoint x="639" y="790" />
              <mxPoint x="970" y="790" />
              <mxPoint x="970" y="460" />
            </Array>
          </mxGeometry>
        </mxCell>
        <mxCell id="9l3UPbGqFEDprcxRc8I1-68" value="Speed is over the speed limit, are you sure?" style="rounded=1;whiteSpace=wrap;html=1;" vertex="1" parent="1">
          <mxGeometry x="587.19" y="707.5" width="110" height="55" as="geometry" />
        </mxCell>
        <mxCell id="9l3UPbGqFEDprcxRc8I1-71" value="No" style="text;html=1;strokeColor=none;fillColor=none;align=center;verticalAlign=middle;whiteSpace=wrap;rounded=0;" vertex="1" parent="1">
          <mxGeometry x="447.19" y="640" width="40" height="20" as="geometry" />
        </mxCell>
        <mxCell id="9l3UPbGqFEDprcxRc8I1-72" value="Yes" style="text;html=1;strokeColor=none;fillColor=none;align=center;verticalAlign=middle;whiteSpace=wrap;rounded=0;" vertex="1" parent="1">
          <mxGeometry x="592.19" y="640" width="40" height="20" as="geometry" />
        </mxCell>
        <mxCell id="9l3UPbGqFEDprcxRc8I1-74" value="Yes" style="text;html=1;strokeColor=none;fillColor=none;align=center;verticalAlign=middle;whiteSpace=wrap;rounded=0;" vertex="1" parent="1">
          <mxGeometry x="544.69" y="710" width="40" height="20" as="geometry" />
        </mxCell>
        <mxCell id="9l3UPbGqFEDprcxRc8I1-81" style="edgeStyle=orthogonalEdgeStyle;rounded=0;orthogonalLoop=1;jettySize=auto;html=1;exitX=0.5;exitY=1;exitDx=0;exitDy=0;entryX=1;entryY=0.25;entryDx=0;entryDy=0;" edge="1" parent="1" source="9l3UPbGqFEDprcxRc8I1-76" target="9l3UPbGqFEDprcxRc8I1-54">
          <mxGeometry relative="1" as="geometry">
            <mxPoint x="980" y="440" as="targetPoint" />
            <Array as="points">
              <mxPoint x="447" y="850" />
              <mxPoint x="447" y="870" />
              <mxPoint x="980" y="870" />
              <mxPoint x="980" y="445" />
            </Array>
          </mxGeometry>
        </mxCell>
        <mxCell id="9l3UPbGqFEDprcxRc8I1-76" value="Display new speed" style="rounded=1;whiteSpace=wrap;html=1;" vertex="1" parent="1">
          <mxGeometry x="392.82" y="800" width="113.75" height="50" as="geometry" />
        </mxCell>
        <mxCell id="9l3UPbGqFEDprcxRc8I1-84" style="edgeStyle=orthogonalEdgeStyle;rounded=0;orthogonalLoop=1;jettySize=auto;html=1;exitX=0.5;exitY=1;exitDx=0;exitDy=0;entryX=1;entryY=0.75;entryDx=0;entryDy=0;" edge="1" parent="1" source="9l3UPbGqFEDprcxRc8I1-82" target="9l3UPbGqFEDprcxRc8I1-54">
          <mxGeometry relative="1" as="geometry">
            <Array as="points">
              <mxPoint x="778" y="700" />
              <mxPoint x="840" y="700" />
              <mxPoint x="840" y="475" />
            </Array>
          </mxGeometry>
        </mxCell>
        <mxCell id="9l3UPbGqFEDprcxRc8I1-82" value="Intercom on until Driver releases button" style="rounded=0;whiteSpace=wrap;html=1;" vertex="1" parent="1">
          <mxGeometry x="730" y="640" width="95" height="40" as="geometry" />
        </mxCell>
      </root>
    </mxGraphModel>
  </diagram>
</mxfile>
